<svg width="1024" height="1024" viewBox="0 0 1024 1024" fill="none" xmlns="http://www.w3.org/2000/svg">
<path d="M222 191.794C315.048 139.865 408.097 87.9357 503.965 34.4328C596.707 200.61 689.448 366.787 785 538C691.952 589.929 598.903 641.859 503.035 695.361C410.293 529.184 317.552 363.007 222 191.794Z" fill="#03983D"/>
<path d="M424.031 275.551C512.46 226.199 600.89 176.847 692 126C758.046 244.344 824.093 362.688 892.141 484.618C803.711 533.97 715.281 583.322 624.171 634.169C558.125 515.825 492.078 397.481 424.031 275.551Z" fill="#03983D"/>
<path d="M574.08 36.3301C578.656 38.9469 583.297 41.4389 587.938 43.9375C596.629 48.6392 605.171 53.5661 613.687 58.5779C621.229 63.0023 628.844 67.2771 636.5 71.5C645.213 76.3067 653.859 81.2072 662.438 86.25C670.391 90.9245 678.397 95.4723 686.496 99.8899C701.141 107.883 715.61 116.195 730.09 124.482C739.407 129.812 748.754 135.088 758.102 140.363C760.965 141.98 763.826 143.599 766.688 145.219C775.627 150.279 784.574 155.325 793.543 160.334C802.582 165.382 811.596 170.468 820.546 175.674C827.7 179.835 834.878 183.954 842.062 188.063C842.974 188.584 842.974 188.584 843.905 189.116C850.993 193.168 858.098 197.185 865.25 201.125C919.373 231.027 919.373 231.027 927 252C928.629 257.653 929.29 262.634 929.26 268.499C929.264 269.32 929.268 270.142 929.272 270.988C929.282 273.735 929.278 276.482 929.274 279.229C929.279 281.221 929.284 283.213 929.29 285.205C929.304 290.674 929.306 296.143 929.305 301.613C929.307 307.514 929.32 313.414 929.332 319.315C929.353 331.545 929.362 343.775 929.367 356.004C929.367 356.669 929.367 357.333 929.367 358.018C929.368 358.684 929.368 359.35 929.368 360.036C929.371 367.421 929.378 374.807 929.384 382.192C929.404 404.51 929.421 426.828 929.423 449.145C929.423 449.859 929.424 450.572 929.424 451.308C929.424 454.199 929.424 457.091 929.425 459.983C929.425 462.159 929.425 464.335 929.426 466.512C929.426 467.231 929.426 467.95 929.426 468.691C929.429 491.276 929.451 513.861 929.487 536.445C929.528 561.833 929.552 587.22 929.552 612.608C929.552 615.318 929.552 618.028 929.552 620.737C929.552 621.405 929.552 622.072 929.552 622.759C929.553 632.812 929.568 642.865 929.59 652.918C929.614 664.361 929.622 675.803 929.607 687.246C929.599 693.081 929.6 698.916 929.623 704.751C929.644 710.1 929.641 715.449 929.62 720.799C929.617 722.726 929.621 724.654 929.636 726.581C929.775 746.615 925.293 762.362 911.539 777.48C904.341 784.624 897.023 789.517 888.062 794.312C886.237 795.305 884.413 796.301 882.59 797.298C881.387 797.956 880.184 798.612 878.98 799.267C874.306 801.816 869.698 804.461 865.125 807.188C859.177 810.724 853.198 814.197 847.188 817.625C846.32 818.12 845.452 818.615 844.558 819.125C842.705 820.18 840.852 821.236 838.999 822.292C833.435 825.461 827.873 828.636 822.312 831.812C821.429 832.317 821.429 832.317 820.527 832.832C807.662 840.182 794.827 847.584 782 855C780.332 855.964 778.664 856.927 776.996 857.891C770.446 861.677 763.901 865.469 757.375 869.297C745.899 876.024 734.364 882.624 722.74 889.092C716.532 892.555 710.397 896.104 704.33 899.808C699.583 902.692 694.743 905.387 689.875 908.062C684.776 910.866 679.745 913.719 674.812 916.812C667.181 921.58 659.326 925.938 651.484 930.348C644.983 934.004 638.499 937.691 632.022 941.39C630.817 942.078 629.612 942.765 628.407 943.452C622.074 947.061 615.776 950.715 609.536 954.483C603.442 958.128 597.266 961.634 591.11 965.172C585.952 968.138 580.799 971.108 575.68 974.141C551.789 988.265 525.565 1001.18 497.031 994.863C482.502 990.725 469.906 984.492 456.971 976.761C452.028 973.831 447.033 970.991 442.04 968.146C440.244 967.122 438.45 966.096 436.656 965.069C428.88 960.623 421.074 956.235 413.25 951.875C404.108 946.779 395.051 941.552 386.025 936.254C377.788 931.431 369.475 926.753 361.138 922.105C354.635 918.478 348.149 914.825 341.688 911.125C340.852 910.646 340.016 910.168 339.155 909.675C336.436 908.117 333.718 906.559 331 905C326.418 902.373 321.834 899.748 317.25 897.125C316.36 896.616 316.36 896.616 315.453 896.096C307.079 891.306 298.677 886.571 290.25 881.875C281.108 876.779 272.051 871.552 263.025 866.254C254.795 861.435 246.49 856.76 238.16 852.118C231.437 848.37 224.739 844.581 218.063 840.75C211.734 837.12 205.386 833.53 199 830C183.866 821.627 168.893 812.975 153.974 804.225C149.061 801.348 144.135 798.502 139.164 795.727C120.741 785.434 120.741 785.434 114 779C112.859 777.937 112.859 777.937 111.695 776.852C101.94 766.965 94.6622 752.691 94.7483 738.71C94.7454 737.886 94.7425 737.063 94.7395 736.215C94.7322 733.45 94.7392 730.685 94.7461 727.92C94.7438 725.92 94.7406 723.92 94.7366 721.92C94.7282 716.419 94.7324 710.918 94.7386 705.418C94.7431 699.487 94.7361 693.556 94.7306 687.626C94.7222 676.677 94.723 665.729 94.7284 654.78C94.7335 644.665 94.7348 634.549 94.7324 624.434C94.7322 623.763 94.7321 623.092 94.7319 622.401C94.7313 619.678 94.7307 616.955 94.73 614.232C94.7239 588.683 94.7294 563.133 94.7402 537.584C94.7497 514.885 94.7488 492.187 94.7393 469.488C94.7286 443.989 94.7243 418.489 94.7305 392.99C94.7311 390.271 94.7318 387.552 94.7324 384.834C94.7325 384.164 94.7327 383.495 94.7329 382.805C94.7351 372.698 94.7325 362.59 94.7274 352.482C94.7218 340.988 94.7233 329.493 94.734 317.999C94.7393 312.132 94.7413 306.266 94.7347 300.4C94.7288 295.031 94.732 289.662 94.7426 284.293C94.7449 282.35 94.7437 280.407 94.7389 278.463C94.7328 275.823 94.7391 273.183 94.7483 270.542C94.7437 269.787 94.739 269.031 94.7342 268.253C94.8221 255.757 99.7543 243.345 108 234C108.843 233.018 108.843 233.018 109.703 232.016C118.539 222.438 130.841 216.947 142.16 210.838C149.084 207.088 155.902 203.183 162.688 199.188C171.263 194.139 179.91 189.242 188.625 184.438C202.015 177.047 215.211 169.356 228.273 161.402C228.931 161.003 229.589 160.604 230.267 160.193C231.954 159.166 233.638 158.132 235.32 157.098C238.384 155.287 241.546 153.72 244.738 152.148C250.679 149.209 256.37 145.952 262.063 142.563C270.869 137.371 279.74 132.319 288.688 127.375C299.229 121.548 309.714 115.632 320.158 109.632C340.221 98.1099 360.325 86.6621 380.574 75.4688C390.219 70.1366 399.801 64.6989 409.362 59.2186C419.09 53.6437 428.853 48.1364 438.655 42.6924C444.055 39.6846 449.392 36.5957 454.682 33.3975C498.191 7.16539 531.285 11.5421 574.08 36.3301ZM485 46C484.215 46.3862 483.43 46.7725 482.621 47.1704C470.885 52.9917 459.526 59.4863 448.184 66.0313C443.159 68.9232 438.088 71.7223 433 74.5C424.932 78.9061 416.938 83.4323 408.977 88.0293C404.705 90.4891 400.411 92.7973 396 95C392.503 96.9261 389.033 98.9013 385.563 100.875C383.492 102.05 381.422 103.224 379.352 104.398C378.296 104.998 377.241 105.597 376.153 106.214C373.155 107.912 370.153 109.602 367.148 111.289C357.68 116.61 348.266 121.999 338.938 127.563C331.748 131.848 324.492 135.966 317.125 139.938C306.313 145.768 295.722 151.945 285.131 158.166C269.671 167.221 254.107 176.095 238.5 184.895C227.56 191.066 216.657 197.302 205.785 203.594C195.021 209.823 184.24 216.01 173.375 222.063C164.86 226.814 156.376 231.615 147.938 236.5C146.956 237.063 145.975 237.627 144.964 238.207C138.582 241.921 132.249 245.751 127 251C126.347 254.854 125.94 257.414 128.156 260.73C133.761 266.093 141.007 269.491 147.777 273.145C153.45 276.216 159.004 279.478 164.563 282.75C173.858 288.206 183.229 293.51 192.647 298.751C199.775 302.728 206.839 306.801 213.875 310.938C223.473 316.578 233.174 322.011 242.922 327.388C250.449 331.551 257.9 335.825 265.313 340.188C272.805 344.597 280.348 348.874 288 353C296.72 357.702 305.289 362.627 313.828 367.648C321.002 371.859 328.231 375.956 335.5 380C343.682 384.553 351.803 389.192 359.875 393.938C368.35 398.917 376.894 403.751 385.5 408.5C395.155 413.829 404.718 419.289 414.227 424.873C421.84 429.339 429.508 433.7 437.2 438.027C444.642 442.218 452.045 446.474 459.438 450.75C470.818 457.336 470.818 457.336 482.285 463.77C485.863 465.755 489.364 467.829 492.84 469.988C494.095 470.754 494.095 470.754 495.375 471.534C496.989 472.521 498.592 473.524 500.181 474.548C505.808 477.957 510.449 479.034 517 478C520.539 476.799 520.539 476.799 523.75 474.812C524.371 474.46 524.992 474.108 525.631 473.745C527.769 472.521 529.885 471.263 532 470C533.659 469.022 535.317 468.044 536.977 467.066C539.717 465.448 542.456 463.827 545.189 462.198C552.148 458.059 559.175 454.061 566.25 450.125C578.152 443.5 589.957 436.715 601.743 429.887C607.117 426.774 612.496 423.667 617.875 420.562C618.926 419.956 619.976 419.349 621.059 418.724C626.949 415.326 632.847 411.941 638.754 408.57C639.398 408.203 640.042 407.835 640.705 407.457C643.837 405.67 646.969 403.885 650.103 402.102C651.223 401.464 652.342 400.825 653.496 400.168C654.488 399.604 655.48 399.039 656.502 398.458C658.372 397.367 660.199 396.201 662 395C664.086 394.734 664.086 394.734 666.375 394.75C667.125 394.745 667.875 394.74 668.648 394.734C671.361 395.041 673.516 395.894 676 397C676.082 399.02 676.14 401.041 676.188 403.062C676.222 404.188 676.257 405.313 676.293 406.473C675.909 411.097 675.154 415.16 671.466 418.311C669.524 419.57 667.547 420.67 665.5 421.75C663.947 422.616 662.393 423.482 660.84 424.348C660.037 424.786 659.233 425.225 658.406 425.676C654.585 427.779 650.828 429.989 647.062 432.188C641.584 435.36 636.099 438.52 630.613 441.68C616.527 449.788 616.527 449.788 602.5 458C595.586 462.083 588.642 466.111 581.688 470.125C580.598 470.755 579.508 471.384 578.385 472.033C573.047 475.112 567.702 478.175 562.333 481.198C559.81 482.618 557.289 484.043 554.768 485.468C553.567 486.145 552.364 486.82 551.16 487.491C536.518 495.447 536.518 495.447 526 508C525.527 510.835 525.326 513.056 525.374 515.872C525.367 516.638 525.36 517.404 525.353 518.194C525.335 520.758 525.354 523.321 525.372 525.885C525.367 527.743 525.36 529.601 525.35 531.459C525.331 536.562 525.344 541.665 525.361 546.769C525.374 552.273 525.359 557.778 525.347 563.282C525.329 574.065 525.337 584.847 525.355 595.629C525.369 604.39 525.373 613.151 525.37 621.912C525.369 623.159 525.369 624.405 525.368 625.689C525.367 628.22 525.366 630.752 525.365 633.284C525.356 656.352 525.375 679.421 525.406 702.489C525.434 723.55 525.439 744.61 525.424 765.671C525.42 771.065 525.416 776.458 525.412 781.852C525.412 782.516 525.412 783.18 525.411 783.864C525.4 801.461 525.407 819.058 525.42 836.655C525.422 839.177 525.424 841.699 525.426 844.221C525.427 845.462 525.428 846.703 525.429 847.982C525.434 856.735 525.431 865.488 525.424 874.241C525.417 884.905 525.423 895.568 525.448 906.232C525.461 911.675 525.467 917.117 525.456 922.56C525.446 927.54 525.454 932.519 525.477 937.499C525.483 939.303 525.481 941.107 525.472 942.911C525.461 945.359 525.474 947.806 525.494 950.253C525.485 950.958 525.476 951.662 525.466 952.387C525.544 957.355 526.881 960.179 530 964C533.848 966.566 535.748 966.192 540.205 965.637C545.217 964.495 549.401 962.005 553.813 959.438C554.708 958.937 555.603 958.436 556.525 957.92C561.551 955.084 566.477 952.104 571.383 949.066C577.859 945.058 584.438 941.257 591.063 937.5C592.28 936.807 593.498 936.113 594.715 935.42C597.858 933.629 601.002 931.841 604.146 930.054C609.412 927.06 614.676 924.063 619.938 921.062C620.512 920.735 621.087 920.407 621.679 920.07C631.268 914.597 640.801 909.03 650.317 903.431C659.279 898.159 668.277 892.957 677.312 887.812C686.933 882.334 696.52 876.803 706.075 871.211C713.262 867.007 720.47 862.841 727.688 858.688C736.945 853.359 746.168 847.977 755.375 842.562C766.028 836.298 776.735 830.135 787.476 824.022C795.897 819.224 804.27 814.35 812.625 809.438C825.075 802.117 837.572 794.88 850.09 787.675C855.931 784.313 861.766 780.943 867.59 777.551C870.586 775.808 873.6 774.103 876.629 772.418C888.979 765.483 898.932 758.4 903.547 744.333C904.188 741.032 904.135 737.766 904.123 734.418C904.125 733.261 904.125 733.261 904.127 732.081C904.129 729.482 904.125 726.883 904.12 724.283C904.121 722.407 904.122 720.531 904.123 718.655C904.125 713.488 904.121 708.32 904.116 703.153C904.112 697.585 904.113 692.018 904.114 686.45C904.114 676.799 904.111 667.149 904.106 657.498C904.098 643.545 904.095 629.592 904.094 615.639C904.092 593.002 904.085 570.365 904.075 547.729C904.066 525.736 904.059 503.743 904.055 481.75C904.055 481.072 904.055 480.394 904.055 479.696C904.053 472.89 904.052 466.083 904.051 459.277C904.04 402.185 904.023 345.092 904 288C899.218 288.696 895.973 289.871 891.781 292.316C891.201 292.651 890.622 292.986 890.024 293.331C888.178 294.399 886.339 295.481 884.5 296.562C883.297 297.262 882.094 297.96 880.891 298.658C878.471 300.062 876.054 301.471 873.638 302.883C870.045 304.979 866.435 307.043 862.82 309.102C857.608 312.071 852.423 315.084 847.251 318.123C837.026 324.13 826.739 329.995 816.312 335.645C813.7 337.061 811.129 338.51 808.562 340.012C799.841 345.095 799.841 345.095 794 344C791.384 342.169 791.03 341.09 790 338C789.773 335.434 789.584 332.883 789.438 330.312C789.373 329.26 789.373 329.26 789.307 328.186C789.201 326.457 789.1 324.729 789 323C789.504 322.768 790.008 322.536 790.527 322.297C793.998 320.477 797.257 318.352 800.562 316.25C806.001 312.822 811.469 309.554 817.145 306.527C828.379 300.518 839.354 294.046 850.34 287.598C859.509 282.24 868.781 277.08 878.091 271.974C888.88 266.552 888.88 266.552 897 258C897.917 254.543 897.917 254.543 897 251C891.26 245.235 884.372 241.557 877.312 237.625C876.07 236.925 874.828 236.225 873.587 235.524C871.01 234.07 868.431 232.619 865.852 231.17C862.162 229.095 858.485 226.997 854.812 224.891C854.231 224.557 853.65 224.224 853.052 223.881C851.886 223.212 850.72 222.543 849.554 221.874C838.963 215.8 828.323 209.813 817.659 203.867C811.226 200.271 804.854 196.589 798.52 192.822C791.252 188.519 783.869 184.423 776.493 180.308C767.254 175.151 758.062 169.916 748.883 164.653C743.3 161.452 737.712 158.257 732.125 155.063C731.528 154.721 730.931 154.38 730.316 154.028C722.349 149.473 714.37 144.943 706.375 140.438C698.221 135.841 690.103 131.186 682 126.5C670.981 120.128 659.918 113.839 648.827 107.593C644.048 104.9 639.274 102.2 634.5 99.5C628.81 96.2829 623.119 93.0667 617.426 89.8555C606.705 83.8067 596.001 77.7298 585.313 71.625C584.167 70.9711 583.021 70.3171 581.841 69.6433C575.438 65.9827 569.054 62.2914 562.694 58.5562C559.093 56.4761 555.439 54.503 551.773 52.5391C549.857 51.4754 547.967 50.3623 546.102 49.2109C527.073 37.4741 505.056 35.914 485 46Z" fill="#03983D"/>
<path d="M904 288C904.069 345.684 904.122 403.367 904.153 461.051C904.157 467.859 904.161 474.667 904.165 481.475C904.165 482.153 904.166 482.83 904.166 483.528C904.179 505.485 904.201 527.442 904.229 549.399C904.258 572.603 904.276 595.808 904.282 619.012C904.286 632.913 904.299 646.813 904.324 660.714C904.34 670.243 904.344 679.771 904.341 689.3C904.339 694.799 904.342 700.299 904.358 705.799C904.372 710.834 904.373 715.87 904.363 720.905C904.361 722.726 904.365 724.547 904.375 726.369C904.443 740.471 903.083 750.33 893.172 760.961C887.68 766.264 881.384 769.805 874.73 773.41C869.331 776.338 864.045 779.451 858.75 782.562C849.681 787.876 840.571 793.112 831.438 798.312C824.418 802.309 817.406 806.309 810.5 810.5C803.698 814.628 796.791 818.565 789.875 822.5C780.001 828.119 770.168 833.803 760.375 839.562C750.095 845.608 739.788 851.601 729.452 857.549C722.327 861.651 715.221 865.785 708.125 869.938C699.487 874.989 690.817 879.98 682.125 884.938C657.8 898.809 657.8 898.809 633.625 912.938C626.314 917.262 618.941 921.479 611.563 925.688C587.565 939.367 587.565 939.367 563.71 953.294C561.053 954.863 558.39 956.422 555.727 957.98C554.1 958.941 552.487 959.923 550.875 960.906C545.218 964.238 539.733 966.96 533 966C529.792 963.594 528.211 961.317 526 958C525.804 955.505 525.725 953.121 525.737 950.625C525.731 949.484 525.731 949.484 525.725 948.32C525.713 945.75 525.716 943.18 525.719 940.609C525.714 938.756 525.708 936.903 525.701 935.05C525.685 929.942 525.681 924.833 525.68 919.725C525.676 914.221 525.661 908.718 525.648 903.215C525.62 891.174 525.608 879.133 525.6 867.091C525.594 859.576 525.586 852.06 525.577 844.545C525.552 823.747 525.532 802.948 525.525 782.15C525.524 780.805 525.524 779.459 525.524 778.114C525.523 776.766 525.523 775.417 525.522 774.069C525.521 771.363 525.52 768.658 525.52 765.952C525.519 765.282 525.519 764.611 525.519 763.92C525.512 742.17 525.48 720.42 525.433 698.67C525.384 675.679 525.357 652.687 525.354 629.696C525.352 617.161 525.341 604.627 525.305 592.092C525.274 581.419 525.263 570.746 525.28 560.073C525.288 554.626 525.286 549.179 525.258 543.732C525.232 538.746 525.235 533.761 525.259 528.774C525.263 526.97 525.257 525.166 525.239 523.362C525.092 507.058 525.092 507.058 530.35 501.421C530.895 500.952 531.439 500.483 532 500C532.955 499.176 532.955 499.176 533.93 498.336C538.994 494.2 544.791 491.141 550.5 488C552.542 486.861 554.584 485.72 556.625 484.578C557.673 483.992 558.721 483.406 559.801 482.803C565.064 479.837 570.284 476.798 575.5 473.75C576.506 473.162 577.513 472.574 578.55 471.969C585.231 468.057 591.879 464.095 598.488 460.062C601.33 458.362 604.226 456.777 607.137 455.199C613.322 451.846 619.413 448.34 625.5 444.812C627.224 443.815 628.949 442.818 630.673 441.821C632.383 440.832 634.091 439.842 635.8 438.853C638.638 437.21 641.477 435.569 644.316 433.93C645.898 433.016 647.48 432.102 649.063 431.188C649.812 430.755 650.562 430.323 651.334 429.877C655.188 427.648 659.023 425.394 662.84 423.102C664.014 422.399 664.014 422.399 665.213 421.683C666.699 420.793 668.181 419.897 669.66 418.995C674.666 416 674.666 416 678 416C678.33 449.99 678.66 483.98 679 519C687.549 508.008 696.073 497.006 704.52 485.937C706.736 483.036 708.961 480.143 711.188 477.25C711.978 476.223 712.768 475.195 713.582 474.137C715.284 471.928 716.99 469.723 718.699 467.52C719.147 466.941 719.595 466.363 720.056 465.767C721.294 464.168 722.534 462.57 723.773 460.973C725.296 458.94 726.758 456.861 728.164 454.746C730 452 730 452 732 450C736.75 449.663 740.553 450.245 745.063 451.688C752.42 453.913 759.851 455.611 767.36 457.249C771.034 458.059 774.595 458.861 778.156 460.086C781.785 461.349 781.785 461.349 789 462C789 422.4 789 382.8 789 342C790.65 342.66 792.3 343.32 794 344C799.528 344.526 802.707 343.528 807.5 340.812C808.13 340.461 808.759 340.109 809.408 339.747C810.825 338.952 812.238 338.151 813.648 337.344C816.195 335.889 818.754 334.459 821.316 333.031C832.096 327.005 842.781 320.83 853.379 314.49C857.624 311.957 861.89 309.495 866.238 307.145C870.557 304.81 874.818 302.387 879.059 299.914C880.281 299.204 881.503 298.495 882.725 297.785C884.599 296.696 886.471 295.605 888.34 294.506C890.179 293.426 892.024 292.357 893.871 291.289C894.953 290.657 896.035 290.025 897.15 289.374C900 288 900 288 904 288Z" fill="#FCFCFC"/>
<path d="M574.08 36.3301C578.656 38.9469 583.297 41.4389 587.938 43.9375C596.629 48.6392 605.171 53.5661 613.687 58.5779C621.229 63.0023 628.844 67.2771 636.5 71.5C645.213 76.3067 653.859 81.2072 662.438 86.25C670.391 90.9245 678.397 95.4723 686.496 99.8899C701.141 107.883 715.61 116.195 730.09 124.482C739.407 129.812 748.754 135.088 758.102 140.363C760.965 141.98 763.826 143.599 766.688 145.219C775.627 150.279 784.574 155.325 793.543 160.334C802.582 165.382 811.596 170.468 820.546 175.674C827.7 179.835 834.878 183.954 842.062 188.063C842.974 188.584 842.974 188.584 843.905 189.116C850.993 193.168 858.098 197.185 865.25 201.125C919.373 231.027 919.373 231.027 927 252C928.629 257.653 929.29 262.634 929.26 268.499C929.264 269.32 929.268 270.142 929.272 270.988C929.282 273.735 929.278 276.482 929.274 279.229C929.279 281.221 929.284 283.213 929.29 285.205C929.304 290.674 929.306 296.143 929.305 301.613C929.307 307.514 929.32 313.414 929.332 319.315C929.353 331.545 929.362 343.775 929.367 356.004C929.367 356.669 929.367 357.333 929.367 358.018C929.368 358.684 929.368 359.35 929.368 360.036C929.371 367.421 929.378 374.807 929.384 382.192C929.404 404.51 929.421 426.828 929.423 449.145C929.423 449.859 929.424 450.572 929.424 451.308C929.424 454.199 929.424 457.091 929.425 459.983C929.425 462.159 929.425 464.335 929.426 466.512C929.426 467.231 929.426 467.95 929.426 468.691C929.429 491.276 929.451 513.861 929.487 536.445C929.528 561.833 929.552 587.22 929.552 612.608C929.552 615.318 929.552 618.028 929.552 620.737C929.552 621.405 929.552 622.072 929.552 622.759C929.553 632.812 929.568 642.865 929.59 652.918C929.614 664.361 929.622 675.803 929.607 687.246C929.599 693.081 929.6 698.916 929.623 704.751C929.644 710.1 929.641 715.449 929.62 720.799C929.617 722.726 929.621 724.654 929.636 726.581C929.775 746.615 925.293 762.362 911.539 777.48C904.341 784.624 897.023 789.517 888.062 794.312C886.237 795.305 884.413 796.301 882.59 797.298C881.387 797.956 880.184 798.612 878.98 799.267C874.306 801.816 869.698 804.461 865.125 807.188C859.177 810.724 853.198 814.197 847.188 817.625C846.32 818.12 845.452 818.615 844.558 819.125C842.705 820.18 840.852 821.236 838.999 822.292C833.435 825.461 827.873 828.636 822.312 831.812C821.429 832.317 821.429 832.317 820.527 832.832C807.662 840.182 794.827 847.584 782 855C780.332 855.964 778.664 856.927 776.996 857.891C770.446 861.677 763.901 865.469 757.375 869.297C745.899 876.024 734.364 882.624 722.74 889.092C716.532 892.555 710.397 896.104 704.33 899.808C699.583 902.692 694.743 905.387 689.875 908.062C684.776 910.866 679.745 913.719 674.812 916.812C667.181 921.58 659.326 925.938 651.484 930.348C644.983 934.004 638.499 937.691 632.022 941.39C630.817 942.078 629.612 942.765 628.407 943.452C622.074 947.061 615.776 950.715 609.536 954.483C603.442 958.128 597.266 961.634 591.11 965.172C585.952 968.138 580.799 971.108 575.68 974.141C551.789 988.265 525.565 1001.18 497.031 994.863C482.502 990.725 469.906 984.492 456.971 976.761C452.028 973.831 447.033 970.991 442.04 968.146C440.244 967.122 438.45 966.096 436.656 965.069C428.88 960.623 421.074 956.235 413.25 951.875C404.108 946.779 395.051 941.552 386.025 936.254C377.788 931.431 369.475 926.753 361.138 922.105C354.635 918.478 348.149 914.825 341.688 911.125C340.852 910.646 340.016 910.168 339.155 909.675C336.436 908.117 333.718 906.559 331 905C326.418 902.373 321.834 899.748 317.25 897.125C316.36 896.616 316.36 896.616 315.453 896.096C307.079 891.306 298.677 886.571 290.25 881.875C281.108 876.779 272.051 871.552 263.025 866.254C254.795 861.435 246.49 856.76 238.16 852.118C231.437 848.37 224.739 844.581 218.063 840.75C211.734 837.12 205.386 833.53 199 830C183.866 821.627 168.893 812.975 153.974 804.225C149.061 801.348 144.135 798.502 139.164 795.727C120.741 785.434 120.741 785.434 114 779C112.859 777.937 112.859 777.937 111.695 776.852C101.94 766.965 94.6622 752.691 94.7483 738.71C94.7454 737.886 94.7425 737.063 94.7395 736.215C94.7322 733.45 94.7392 730.685 94.7461 727.92C94.7438 725.92 94.7406 723.92 94.7366 721.92C94.7282 716.419 94.7324 710.918 94.7386 705.418C94.7431 699.487 94.7361 693.556 94.7306 687.626C94.7222 676.677 94.723 665.729 94.7284 654.78C94.7335 644.665 94.7348 634.549 94.7324 624.434C94.7322 623.763 94.7321 623.092 94.7319 622.401C94.7313 619.678 94.7307 616.955 94.73 614.232C94.7239 588.683 94.7294 563.133 94.7402 537.584C94.7497 514.885 94.7488 492.187 94.7393 469.488C94.7286 443.989 94.7243 418.489 94.7305 392.99C94.7311 390.271 94.7318 387.552 94.7324 384.834C94.7325 384.164 94.7327 383.495 94.7329 382.805C94.7351 372.698 94.7325 362.59 94.7274 352.482C94.7218 340.988 94.7233 329.493 94.734 317.999C94.7393 312.132 94.7413 306.266 94.7347 300.4C94.7288 295.031 94.732 289.662 94.7426 284.293C94.7449 282.35 94.7437 280.407 94.7389 278.463C94.7328 275.823 94.7391 273.183 94.7483 270.542C94.7437 269.787 94.739 269.031 94.7342 268.253C94.8221 255.757 99.7543 243.345 108 234C108.843 233.018 108.843 233.018 109.703 232.016C118.539 222.438 130.841 216.947 142.16 210.838C149.084 207.088 155.902 203.183 162.688 199.188C171.263 194.139 179.91 189.242 188.625 184.438C202.015 177.047 215.211 169.356 228.273 161.402C228.931 161.003 229.589 160.604 230.267 160.193C231.954 159.166 233.638 158.132 235.32 157.098C238.384 155.287 241.546 153.72 244.738 152.148C250.679 149.209 256.37 145.952 262.063 142.563C270.869 137.371 279.74 132.319 288.688 127.375C299.229 121.548 309.714 115.632 320.158 109.632C340.221 98.1099 360.325 86.6621 380.574 75.4688C390.219 70.1366 399.801 64.6989 409.362 59.2186C419.09 53.6437 428.853 48.1364 438.655 42.6924C444.055 39.6846 449.392 36.5957 454.682 33.3975C498.191 7.16539 531.285 11.5421 574.08 36.3301ZM485 46C484.215 46.3862 483.43 46.7725 482.621 47.1704C470.885 52.9917 459.526 59.4863 448.184 66.0313C443.159 68.9232 438.088 71.7223 433 74.5C424.932 78.9061 416.938 83.4323 408.977 88.0293C404.705 90.4891 400.411 92.7973 396 95C392.503 96.9261 389.033 98.9013 385.563 100.875C383.492 102.05 381.422 103.224 379.352 104.398C378.296 104.998 377.241 105.597 376.153 106.214C373.155 107.912 370.153 109.602 367.148 111.289C357.68 116.61 348.266 121.999 338.938 127.563C331.748 131.848 324.492 135.966 317.125 139.938C306.313 145.768 295.722 151.945 285.131 158.166C269.671 167.221 254.107 176.095 238.5 184.895C227.56 191.066 216.657 197.302 205.785 203.594C195.021 209.823 184.24 216.01 173.375 222.063C164.86 226.814 156.376 231.615 147.938 236.5C146.956 237.063 145.975 237.627 144.964 238.207C138.582 241.921 132.249 245.751 127 251C126.347 254.854 125.94 257.414 128.156 260.73C133.761 266.093 141.007 269.491 147.777 273.145C153.45 276.216 159.004 279.478 164.563 282.75C173.858 288.206 183.229 293.51 192.647 298.751C199.775 302.728 206.839 306.801 213.875 310.938C223.473 316.578 233.174 322.011 242.922 327.388C250.449 331.551 257.9 335.825 265.313 340.188C272.805 344.597 280.348 348.874 288 353C296.72 357.702 305.289 362.627 313.828 367.648C321.002 371.859 328.231 375.956 335.5 380C343.682 384.553 351.803 389.192 359.875 393.938C368.35 398.917 376.894 403.751 385.5 408.5C395.155 413.829 404.718 419.289 414.227 424.873C421.84 429.339 429.508 433.7 437.2 438.027C444.642 442.218 452.045 446.474 459.438 450.75C470.818 457.336 470.818 457.336 482.285 463.77C485.863 465.755 489.364 467.829 492.84 469.988C494.095 470.754 494.095 470.754 495.375 471.534C496.989 472.521 498.592 473.524 500.181 474.548C505.808 477.957 510.449 479.034 517 478C520.539 476.799 520.539 476.799 523.75 474.812C524.371 474.46 524.992 474.108 525.631 473.745C527.769 472.521 529.885 471.263 532 470C533.659 469.022 535.317 468.044 536.977 467.066C539.717 465.448 542.456 463.827 545.189 462.198C552.148 458.059 559.175 454.061 566.25 450.125C578.152 443.5 589.957 436.715 601.743 429.887C607.117 426.774 612.496 423.667 617.875 420.562C618.926 419.956 619.976 419.349 621.059 418.724C626.949 415.326 632.847 411.941 638.754 408.57C639.398 408.203 640.042 407.835 640.705 407.457C643.837 405.67 646.969 403.885 650.103 402.102C651.223 401.464 652.342 400.825 653.496 400.168C654.488 399.604 655.48 399.039 656.502 398.458C658.372 397.367 660.199 396.201 662 395C664.086 394.734 664.086 394.734 666.375 394.75C667.125 394.745 667.875 394.74 668.648 394.734C671.361 395.041 673.516 395.894 676 397C676.082 399.02 676.14 401.041 676.188 403.062C676.222 404.188 676.257 405.313 676.293 406.473C675.909 411.097 675.154 415.16 671.466 418.311C669.524 419.57 667.547 420.67 665.5 421.75C663.947 422.616 662.393 423.482 660.84 424.348C660.037 424.786 659.233 425.225 658.406 425.676C654.585 427.779 650.828 429.989 647.062 432.188C641.584 435.36 636.099 438.52 630.613 441.68C616.527 449.788 616.527 449.788 602.5 458C595.586 462.083 588.642 466.111 581.688 470.125C580.598 470.755 579.508 471.384 578.385 472.033C573.047 475.112 567.702 478.175 562.333 481.198C559.81 482.618 557.289 484.043 554.768 485.468C553.567 486.145 552.364 486.82 551.16 487.491C536.518 495.447 536.518 495.447 526 508C525.527 510.835 525.326 513.056 525.374 515.872C525.367 516.638 525.36 517.404 525.353 518.194C525.335 520.758 525.354 523.321 525.372 525.885C525.367 527.743 525.36 529.601 525.35 531.459C525.331 536.562 525.344 541.665 525.361 546.769C525.374 552.273 525.359 557.778 525.347 563.282C525.329 574.065 525.337 584.847 525.355 595.629C525.369 604.39 525.373 613.151 525.37 621.912C525.369 623.159 525.369 624.405 525.368 625.689C525.367 628.22 525.366 630.752 525.365 633.284C525.356 656.352 525.375 679.421 525.406 702.489C525.434 723.55 525.439 744.61 525.424 765.671C525.42 771.065 525.416 776.458 525.412 781.852C525.412 782.516 525.412 783.18 525.411 783.864C525.4 801.461 525.407 819.058 525.42 836.655C525.422 839.177 525.424 841.699 525.426 844.221C525.427 845.462 525.428 846.703 525.429 847.982C525.434 856.735 525.431 865.488 525.424 874.241C525.417 884.905 525.423 895.568 525.448 906.232C525.461 911.675 525.467 917.117 525.456 922.56C525.446 927.54 525.454 932.519 525.477 937.499C525.483 939.303 525.481 941.107 525.472 942.911C525.461 945.359 525.474 947.806 525.494 950.253C525.485 950.958 525.476 951.662 525.466 952.387C525.544 957.355 526.881 960.179 530 964C533.848 966.566 535.748 966.192 540.205 965.637C545.217 964.495 549.401 962.005 553.813 959.438C554.708 958.937 555.603 958.436 556.525 957.92C561.551 955.084 566.477 952.104 571.383 949.066C577.859 945.058 584.438 941.257 591.063 937.5C592.28 936.807 593.498 936.113 594.715 935.42C597.858 933.629 601.002 931.841 604.146 930.054C609.412 927.06 614.676 924.063 619.938 921.062C620.512 920.735 621.087 920.407 621.679 920.07C631.268 914.597 640.801 909.03 650.317 903.431C659.279 898.159 668.277 892.957 677.312 887.812C686.933 882.334 696.52 876.803 706.075 871.211C713.262 867.007 720.47 862.841 727.688 858.688C736.945 853.359 746.168 847.977 755.375 842.562C766.028 836.298 776.735 830.135 787.476 824.022C795.897 819.224 804.27 814.35 812.625 809.438C825.075 802.117 837.572 794.88 850.09 787.675C855.931 784.313 861.766 780.943 867.59 777.551C870.586 775.808 873.6 774.103 876.629 772.418C888.979 765.483 898.932 758.4 903.547 744.333C904.188 741.032 904.135 737.766 904.123 734.418C904.125 733.261 904.125 733.261 904.127 732.081C904.129 729.482 904.125 726.883 904.12 724.283C904.121 722.407 904.122 720.531 904.123 718.655C904.125 713.488 904.121 708.32 904.116 703.153C904.112 697.585 904.113 692.018 904.114 686.45C904.114 676.799 904.111 667.149 904.106 657.498C904.098 643.545 904.095 629.592 904.094 615.639C904.092 593.002 904.085 570.365 904.075 547.729C904.066 525.736 904.059 503.743 904.055 481.75C904.055 481.072 904.055 480.394 904.055 479.696C904.053 472.89 904.052 466.083 904.051 459.277C904.04 402.185 904.023 345.092 904 288C899.218 288.696 895.973 289.871 891.781 292.316C891.201 292.651 890.622 292.986 890.024 293.331C888.178 294.399 886.339 295.481 884.5 296.562C883.297 297.262 882.094 297.96 880.891 298.658C878.471 300.062 876.054 301.471 873.638 302.883C870.045 304.979 866.435 307.043 862.82 309.102C857.608 312.071 852.423 315.084 847.251 318.123C837.026 324.13 826.739 329.995 816.312 335.645C813.7 337.061 811.129 338.51 808.562 340.012C799.841 345.095 799.841 345.095 794 344C791.384 342.169 791.03 341.09 790 338C789.773 335.434 789.584 332.883 789.438 330.312C789.373 329.26 789.373 329.26 789.307 328.186C789.201 326.457 789.1 324.729 789 323C789.504 322.768 790.008 322.536 790.527 322.297C793.998 320.477 797.257 318.352 800.562 316.25C806.001 312.822 811.469 309.554 817.145 306.527C828.379 300.518 839.354 294.046 850.34 287.598C859.509 282.24 868.781 277.08 878.091 271.974C888.88 266.552 888.88 266.552 897 258C897.917 254.543 897.917 254.543 897 251C891.26 245.235 884.372 241.557 877.312 237.625C876.07 236.925 874.828 236.225 873.587 235.524C871.01 234.07 868.431 232.619 865.852 231.17C862.162 229.095 858.485 226.997 854.812 224.891C854.231 224.557 853.65 224.224 853.052 223.881C851.886 223.212 850.72 222.543 849.554 221.874C838.963 215.8 828.323 209.813 817.659 203.867C811.226 200.271 804.854 196.589 798.52 192.822C791.252 188.519 783.869 184.423 776.493 180.308C767.254 175.151 758.062 169.916 748.883 164.653C743.3 161.452 737.712 158.257 732.125 155.063C731.528 154.721 730.931 154.38 730.316 154.028C722.349 149.473 714.37 144.943 706.375 140.438C698.221 135.841 690.103 131.186 682 126.5C670.981 120.128 659.918 113.839 648.827 107.593C644.048 104.9 639.274 102.2 634.5 99.5C628.81 96.2829 623.119 93.0667 617.426 89.8555C606.705 83.8067 596.001 77.7298 585.313 71.625C584.167 70.9711 583.021 70.3171 581.841 69.6433C575.438 65.9827 569.054 62.2914 562.694 58.5562C559.093 56.4761 555.439 54.503 551.773 52.5391C549.857 51.4754 547.967 50.3623 546.102 49.2109C527.073 37.4741 505.056 35.914 485 46ZM124 300C120.338 304.615 119.5 307.645 119.497 313.501C119.491 314.239 119.485 314.977 119.479 315.738C119.464 318.213 119.478 320.687 119.492 323.162C119.487 324.953 119.481 326.745 119.473 328.537C119.456 333.462 119.465 338.386 119.477 343.311C119.486 348.622 119.472 353.933 119.461 359.244C119.443 369.651 119.447 380.057 119.459 390.463C119.468 398.922 119.469 407.381 119.465 415.84C119.464 417.043 119.464 418.247 119.463 419.486C119.462 421.931 119.46 424.375 119.459 426.82C119.448 449.754 119.461 472.689 119.482 495.624C119.5 515.298 119.497 534.973 119.479 554.648C119.457 577.492 119.449 600.336 119.461 623.18C119.462 625.617 119.464 628.054 119.465 630.491C119.465 631.69 119.466 632.889 119.467 634.124C119.47 642.57 119.464 651.015 119.455 659.46C119.444 669.758 119.447 680.055 119.468 690.352C119.478 695.605 119.483 700.858 119.469 706.111C119.457 710.923 119.464 715.735 119.485 720.547C119.49 722.285 119.488 724.022 119.478 725.76C119.414 738.193 120.295 750.176 129.524 759.547C135.33 764.881 141.764 768.479 148.688 772.188C149.899 772.847 151.109 773.507 152.319 774.168C154.149 775.169 155.98 776.17 157.813 777.166C163.061 780.022 168.258 782.96 173.438 785.938C174.267 786.413 175.096 786.889 175.95 787.379C177.69 788.377 179.431 789.377 181.171 790.376C186.63 793.509 192.097 796.628 197.563 799.75C199.956 801.117 202.349 802.484 204.742 803.852C205.341 804.194 205.94 804.536 206.557 804.888C210.159 806.947 213.759 809.007 217.359 811.069C220.301 812.755 223.244 814.44 226.188 816.125C226.768 816.457 227.348 816.789 227.946 817.132C236.187 821.846 244.457 826.503 252.75 831.125C261.937 836.247 271.043 841.495 280.116 846.816C288.838 851.925 297.63 856.903 306.438 861.863C311.699 864.826 316.946 867.814 322.188 870.812C323.03 871.294 323.872 871.776 324.74 872.272C327.493 873.848 330.247 875.424 333 877C337.625 879.647 342.249 882.293 346.875 884.938C347.473 885.279 348.07 885.621 348.686 885.973C357.536 891.032 366.402 896.061 375.281 901.068C383.425 905.665 391.541 910.309 399.655 914.957C408.138 919.814 416.65 924.615 425.188 929.375C432.663 933.544 440.087 937.78 447.443 942.156C454.007 946.042 460.657 949.774 467.313 953.5C468.952 954.418 468.952 954.418 470.625 955.355C481.584 961.592 481.584 961.592 494 962C497.166 959.814 497.79 958.631 499 955C499.097 952.552 499.138 950.133 499.131 947.685C499.134 946.931 499.136 946.176 499.138 945.399C499.143 942.851 499.142 940.303 499.14 937.754C499.143 935.917 499.146 934.08 499.149 932.243C499.158 927.178 499.159 922.113 499.16 917.048C499.162 911.592 499.169 906.136 499.176 900.68C499.19 888.742 499.196 876.804 499.2 864.866C499.203 857.416 499.207 849.965 499.212 842.515C499.224 821.897 499.234 801.28 499.238 780.663C499.238 779.329 499.238 777.996 499.238 776.662C499.238 775.325 499.239 773.989 499.239 772.652C499.239 769.97 499.24 767.288 499.24 764.606C499.24 763.942 499.24 763.277 499.241 762.591C499.244 741.029 499.26 719.466 499.283 697.903C499.308 675.11 499.322 652.318 499.323 629.525C499.324 617.099 499.33 604.672 499.348 592.246C499.363 581.665 499.368 571.085 499.36 560.504C499.356 555.104 499.357 549.704 499.371 544.304C499.384 539.361 499.383 534.419 499.371 529.477C499.369 527.688 499.372 525.898 499.38 524.109C499.391 521.679 499.384 519.249 499.372 516.818C499.38 516.122 499.387 515.426 499.395 514.708C499.331 508.682 497.754 504.218 494.004 499.477C489.633 495.873 484.853 493.171 479.938 490.375C478.867 489.758 477.796 489.141 476.693 488.506C469.37 484.303 461.988 480.213 454.571 476.178C448.08 472.634 441.689 468.933 435.313 465.188C425.987 459.711 416.592 454.375 407.146 449.11C400.574 445.446 394.026 441.745 387.5 438C380.006 433.701 372.481 429.461 364.938 425.25C355.914 420.208 346.913 415.127 337.938 410C337.059 409.498 337.059 409.498 336.162 408.986C326.919 403.701 317.723 398.338 308.54 392.951C301.369 388.759 294.119 384.735 286.82 380.771C281.179 377.693 275.711 374.441 270.313 370.949C267.357 369.21 264.391 367.685 261.316 366.172C255.356 363.226 249.648 359.962 243.938 356.562C235.131 351.371 226.26 346.319 217.313 341.375C199.067 331.288 181.02 320.864 162.965 310.441C158.188 307.685 153.41 304.929 148.625 302.188C147.607 301.604 146.588 301.02 145.539 300.418C144.701 299.95 143.863 299.482 143 299C142.326 298.611 141.652 298.221 140.957 297.82C135.498 295.532 128.451 296.073 124 300Z" fill="#181919"/>
<path d="M287.738 163.142C288.658 163.672 289.579 164.201 290.527 164.746C291.559 165.332 292.591 165.917 293.654 166.521C294.738 167.153 295.821 167.786 296.937 168.438C298.058 169.079 299.179 169.721 300.334 170.382C308.007 174.79 315.619 179.295 323.178 183.895C332.28 189.416 341.353 194.919 350.996 199.453C354.522 201.269 357.872 203.312 361.262 205.367C365.925 208.148 370.688 210.747 375.437 213.375C384.506 218.419 393.469 223.612 402.375 228.938C412.505 234.991 422.744 240.802 433.081 246.494C441.493 251.135 449.801 255.933 458.083 260.801C465.172 264.959 472.318 269.004 479.5 273C487.869 277.657 496.177 282.403 504.438 287.25C512.029 291.704 519.655 296.075 527.363 300.324C539.861 307.221 552.209 314.384 564.568 321.526C574.746 327.408 584.945 333.25 595.186 339.022C605.674 344.936 616.122 350.916 626.572 356.896C630.848 359.342 635.126 361.784 639.406 364.223C660.228 376.092 660.228 376.092 670.188 381.938C670.883 382.345 671.578 382.752 672.294 383.171C676.874 385.874 676.874 385.874 678 387C678.072 388.853 678.084 390.708 678.062 392.563C678.053 393.574 678.044 394.586 678.035 395.629C678.018 396.803 678.018 396.803 678 398C673.25 396.125 673.25 396.125 671 395C662.591 394.039 657.886 396.772 650.875 401.188C648.738 402.485 646.6 403.78 644.461 405.074C643.383 405.733 642.305 406.393 641.194 407.072C636.357 409.992 631.433 412.746 626.5 415.5C618.476 420.008 610.505 424.599 602.562 429.25C594.135 434.184 585.672 439.04 577.146 443.801C562.216 452.143 547.392 460.647 532.671 469.352C532.073 469.705 531.474 470.058 530.857 470.421C529.23 471.381 527.604 472.343 525.978 473.305C519.368 477.067 514.655 479.432 507 478C502.761 476.19 498.951 473.838 495.062 471.375C493.033 470.131 491.004 468.889 488.973 467.648C487.974 467.031 486.975 466.415 485.946 465.779C482.3 463.577 478.576 461.549 474.825 459.533C469.52 456.655 464.298 453.628 459.062 450.625C457.837 449.923 456.611 449.221 455.385 448.52C452.848 447.067 450.311 445.614 447.774 444.161C441.272 440.437 434.764 436.721 428.258 433.005C426.509 432.006 424.76 431.007 423.012 430.008C422.435 429.678 421.858 429.349 421.263 429.009C417.732 426.991 414.202 424.971 410.673 422.949C407.72 421.257 404.766 419.566 401.812 417.875C401.231 417.542 400.65 417.21 400.052 416.867C391.812 412.153 383.542 407.496 375.25 402.875C366.106 397.778 357.046 392.55 348.019 387.25C339.862 382.473 331.626 377.852 323.366 373.257C316.087 369.196 308.874 365.034 301.687 360.813C293.642 356.088 285.54 351.498 277.348 347.031C268.815 342.372 260.385 337.539 251.955 332.697C246.39 329.501 240.821 326.312 235.25 323.125C234.657 322.786 234.065 322.447 233.454 322.097C225.08 317.307 216.677 312.571 208.25 307.875C199.066 302.755 189.962 297.509 180.893 292.188C173.987 288.141 167.039 284.175 160.062 280.25C156.373 278.169 152.686 276.086 149 274C148.151 273.52 147.303 273.04 146.428 272.545C144.072 271.206 141.722 269.855 139.375 268.5C138.694 268.115 138.014 267.73 137.313 267.333C133.308 265.002 130.035 262.574 127 259C125.977 254.123 125.977 254.123 127 251C132.185 244.79 139.689 241.084 146.687 237.313C148.935 236.078 151.183 234.842 153.43 233.605C154.543 232.996 155.657 232.387 156.804 231.759C161.336 229.265 165.827 226.702 170.312 224.125C172.021 223.146 173.729 222.167 175.437 221.188C176.323 220.68 177.209 220.172 178.121 219.648C181.307 217.824 184.497 216.005 187.687 214.188C198.846 207.827 209.986 201.44 221.062 194.938C230.705 189.281 240.445 183.816 250.239 178.427C255.444 175.558 260.619 172.661 265.719 169.609C266.587 169.092 267.454 168.575 268.348 168.042C269.936 167.089 271.518 166.125 273.091 165.148C273.789 164.729 274.488 164.31 275.207 163.879C275.8 163.514 276.392 163.148 277.003 162.772C280.841 161.288 283.981 161.575 287.738 163.142Z" fill="#FDFCFD"/>
<path d="M512.25 39.5625C513.778 39.5782 513.778 39.5782 515.336 39.5942C528.741 39.917 538.109 44.3011 549.305 51.1718C554.293 54.2175 559.415 56.9854 564.562 59.75C572.36 63.9593 580.051 68.3181 587.688 72.8125C598.484 79.1632 609.406 85.2646 620.367 91.3242C629.447 96.3455 638.469 101.467 647.495 106.583C649.789 107.881 652.086 109.171 654.387 110.457C660.95 114.126 667.47 117.851 673.938 121.687C680.915 125.825 687.975 129.804 695.062 133.75C703.43 138.41 711.741 143.15 720 148C729.221 153.412 738.512 158.683 747.851 163.888C755.328 168.057 762.772 172.28 770.199 176.538C776.514 180.157 782.847 183.74 789.188 187.312C797.447 191.969 805.669 196.686 813.875 201.437C822.419 206.384 830.999 211.259 839.625 216.062C850.924 222.359 862.11 228.838 873.26 235.395C875.88 236.93 878.508 238.448 881.141 239.961C881.925 240.414 882.709 240.868 883.518 241.335C884.951 242.163 886.387 242.987 887.826 243.806C891.349 245.852 894.403 247.834 897 251C897.646 254.426 897.81 256.73 895.886 259.749C892.211 264.086 888.733 266.641 883.625 269.062C876.268 272.751 869.151 276.755 862.062 280.937C854.941 285.128 847.803 289.269 840.562 293.25C834.017 296.851 827.555 300.572 821.129 304.383C815.492 307.724 809.798 310.955 804.09 314.172C800.611 316.23 797.358 318.499 794.16 320.969C790.899 322.526 788.58 322.4 785 322C782.354 320.727 780.072 319.453 777.625 317.875C776.12 316.947 774.614 316.023 773.105 315.102C772.29 314.6 771.474 314.099 770.634 313.583C765.806 310.681 760.865 307.98 755.938 305.25C746.568 300.035 737.283 294.69 728.037 289.26C720.761 284.999 713.428 280.852 706.062 276.75C697.065 271.737 688.15 266.613 679.292 261.357C665.415 253.14 651.45 245.094 637.357 237.251C629.181 232.69 621.093 227.99 613.02 223.25C605.895 219.078 598.715 215.015 591.5 211C582.272 205.864 573.13 200.6 564.024 195.252C556.858 191.055 549.633 186.974 542.375 182.937C533.631 178.071 524.976 173.08 516.376 167.965C500.272 158.391 484 149.106 467.677 139.91C457.195 133.997 446.781 127.969 436.364 121.942C432.9 119.942 429.431 117.951 425.961 115.961C424.794 115.291 423.627 114.621 422.46 113.951C420.271 112.694 418.081 111.439 415.889 110.186C409.138 106.305 402.534 102.237 396 98C396.321 96.1074 396.321 96.1074 397 94C399.25 92.6476 401.368 91.567 403.75 90.5C410.385 87.3596 416.776 83.9343 423.125 80.25C431.267 75.5403 439.478 70.9848 447.753 66.5119C453.301 63.5021 458.792 60.41 464.253 57.2439C473.291 52.004 482.318 46.9677 492 43C492.668 42.7255 493.336 42.451 494.024 42.1682C500.128 39.875 505.766 39.4925 512.25 39.5625Z" fill="#FDFCFD"/>
<path d="M301.201 488.617C301.926 489.362 302.651 490.107 303.398 490.875C304.208 491.696 305.017 492.517 305.852 493.363C306.684 494.233 307.517 495.104 308.375 496C309.2 496.839 310.025 497.678 310.875 498.543C315.172 502.942 319.295 507.447 323.311 512.102C326.228 515.38 329.368 518.429 332.5 521.5C336.911 525.864 341.198 530.234 345.199 534.98C348.183 538.327 351.411 541.431 354.601 544.581C357.325 547.285 359.954 550.008 362.438 552.938C365.6 556.66 369.03 560.069 372.5 563.5C376.555 567.509 380.44 571.559 384.129 575.91C387.135 579.268 390.372 582.392 393.578 585.559C397.081 589.035 400.41 592.607 403.598 596.379C404.949 598.028 404.949 598.028 406.565 599.315C408.438 601.514 408.37 602.712 408.361 605.575C408.367 606.982 408.367 606.982 408.373 608.417C408.362 609.445 408.352 610.472 408.341 611.53C408.341 612.613 408.341 613.696 408.342 614.812C408.34 618.4 408.316 621.987 408.293 625.574C408.287 628.059 408.283 630.543 408.28 633.027C408.27 638.903 408.246 644.778 408.216 650.654C408.179 657.999 408.163 665.344 408.146 672.689C408.114 685.793 408.064 698.897 408 712C405.004 712.807 402.006 713.607 399.008 714.406C398.17 714.632 397.332 714.858 396.468 715.091C389.937 716.826 383.41 718.109 376.738 719.184C370.82 720.175 364.944 721.376 359.062 722.562C357.499 722.878 357.499 722.878 355.904 723.199C353.884 723.607 351.864 724.016 349.845 724.426C348.056 724.787 346.267 725.143 344.476 725.492C336.536 727.041 328.677 728.917 320.809 730.789C314.473 732.274 308.154 733.551 301.725 734.558C298.052 735.154 294.411 735.888 290.766 736.633C287.206 737.105 283.591 737 280 737C280 720.5 280 704 280 687C288.935 683.649 288.935 683.649 293.187 683.062C298.983 682.179 304.74 681.151 310.5 680.062C311.78 679.826 311.78 679.826 313.087 679.584C317.658 678.719 322.165 677.728 326.672 676.57C333.977 674.707 341.355 673.264 348.75 671.812C351.292 671.311 353.834 670.809 356.376 670.307C358.584 669.872 360.792 669.436 363 669C363.163 661.185 363.287 653.37 363.363 645.554C363.399 641.924 363.448 638.295 363.528 634.666C363.605 631.158 363.646 627.651 363.664 624.142C363.683 622.163 363.738 620.185 363.793 618.207C363.796 612.106 363.694 607.989 359.614 603.242C357.656 601.357 355.624 599.699 353.5 598C350.646 595.717 348.457 593.18 346.086 590.41C340.175 583.581 334.036 576.946 327.59 570.621C325.914 568.913 324.365 567.133 322.812 565.312C319.224 561.141 315.34 557.311 311.428 553.447C307.414 549.464 303.654 545.316 300 541C299.67 540.67 299.34 540.34 299 540C297.186 540.012 295.372 540.112 293.562 540.25C292.574 540.317 291.585 540.384 290.566 540.453C286.769 541.035 283.315 542.054 279.656 543.198C275.297 544.514 270.871 545.53 266.437 546.562C265.116 546.875 265.116 546.875 263.768 547.193C258.842 548.353 253.909 549.472 248.962 550.538C247.058 550.986 245.183 551.554 243.312 552.125C240 553 240 553 234 553C234 616.36 234 679.72 234 745C229.838 742.919 228.95 741.893 226.437 738.188C223.371 733.826 220.163 729.72 216.687 725.688C211.819 720.022 207.175 714.209 202.59 708.312C199.612 704.485 196.544 700.732 193.461 696.988C190.627 693.131 190.861 689.341 190.88 684.768C190.879 684.026 190.878 683.284 190.877 682.52C190.876 680.028 190.881 677.536 190.886 675.044C190.887 673.261 190.887 671.477 190.886 669.693C190.886 664.844 190.892 659.995 190.899 655.147C190.905 650.082 190.905 645.017 190.907 639.952C190.91 630.358 190.918 620.764 190.928 611.17C190.939 600.248 190.945 589.327 190.95 578.406C190.96 555.937 190.978 533.469 191 511C192.284 510.512 193.569 510.026 194.854 509.54C195.569 509.269 196.285 508.998 197.022 508.719C199.099 507.964 201.134 507.4 203.301 506.965C204.486 506.718 204.486 506.718 205.695 506.467C206.559 506.292 207.423 506.117 208.312 505.938C219.13 503.67 229.891 501.187 240.653 498.667C266.716 492.563 266.716 492.563 278.812 489.938C279.693 489.746 280.573 489.555 281.48 489.357C297.526 485.917 297.526 485.917 301.201 488.617Z" fill="#FCFCFC"/>
<path d="M841 529C844.275 530.634 846.341 532.681 848 536C848.508 541.097 848.619 545.574 846.562 550.313C839.778 557.428 830.286 561.721 821.75 566.375C813.751 570.742 805.891 575.242 798.153 580.058C793.166 583.13 788.084 586.03 783 588.938C780.733 590.24 778.465 591.543 776.199 592.848C775.617 593.183 775.035 593.517 774.436 593.862C757.861 603.41 741.371 613.108 725 623C720.752 625.566 716.501 628.127 712.25 630.688C711.207 631.318 710.165 631.949 709.091 632.598C703.394 636.027 697.648 639.305 691.796 642.461C686.6 645.321 681.528 648.393 676.437 651.438C666 657.659 655.506 663.771 644.969 669.821C639.066 673.215 633.197 676.656 627.375 680.188C625.253 681.464 623.127 682.733 621 684C619.815 684.708 619.815 684.708 618.605 685.43C613.768 688.112 610.395 688.619 605 688C600.417 686.125 598.137 683.433 596 679C595.108 674.371 594.595 670.293 597.145 666.13C602.216 659.659 608.959 656.243 616.125 652.5C618.442 651.264 620.757 650.024 623.07 648.781C624.8 647.852 624.8 647.852 626.564 646.905C631.037 644.425 635.367 641.747 639.705 639.04C645.489 635.459 651.375 632.053 657.25 628.625C658.54 627.871 659.83 627.117 661.12 626.362C663.028 625.246 664.937 624.13 666.846 623.014C671.507 620.29 676.162 617.555 680.812 614.812C688.615 610.214 696.445 605.662 704.272 601.105C709.768 597.901 715.246 594.671 720.687 591.375C726.464 587.878 732.316 584.523 738.187 581.188C745.049 577.287 751.865 573.325 758.625 569.25C759.43 568.765 760.235 568.28 761.064 567.78C761.895 567.279 762.726 566.778 763.582 566.262C781.092 555.707 798.678 545.283 816.562 535.371C818.191 534.455 819.807 533.514 821.408 532.551C827.996 528.65 833.343 527.712 841 529Z" fill="#19191A"/>
<path d="M841.066 619.98C844.419 622.255 846.488 624.174 848 628C848.406 630.297 848.406 630.297 848.5 632.75C848.552 633.549 848.603 634.348 848.656 635.172C847.371 640.71 844.082 644.54 839.469 647.775C836.459 649.548 833.409 651.195 830.313 652.813C828.055 654.033 825.799 655.254 823.543 656.477C822.431 657.072 821.319 657.668 820.173 658.282C815.773 660.664 811.444 663.161 807.125 665.688C805.599 666.576 804.073 667.464 802.547 668.352C801.801 668.786 801.055 669.221 800.287 669.669C797.928 671.042 795.566 672.408 793.203 673.773C785.804 678.047 778.417 682.337 771.063 686.688C765.791 689.806 760.49 692.871 755.168 695.902C754.56 696.249 753.953 696.595 753.326 696.952C750.298 698.677 747.267 700.399 744.235 702.116C737.388 706.009 730.649 710.027 723.957 714.178C720.076 716.57 716.143 718.86 712.188 721.125C710.552 722.067 708.917 723.01 707.281 723.953C706.428 724.445 705.575 724.937 704.695 725.443C699.852 728.241 695.019 731.057 690.188 733.875C689.172 734.467 688.157 735.059 687.112 735.669C679.542 740.088 671.997 744.547 664.459 749.019C659.379 752.026 654.28 754.999 649.16 757.938C648.58 758.271 647.999 758.604 647.401 758.948C644.575 760.57 641.748 762.188 638.917 763.801C633.426 766.946 628.094 770.176 622.931 773.838C618.511 776.498 613.012 776.911 608 776C604.088 773.667 601.51 770.765 599 767C598.541 761.395 598.795 757.807 602 753C605.924 749.494 609.896 746.688 614.438 744C615.068 743.626 615.699 743.252 616.348 742.867C623.3 738.772 630.342 734.832 637.373 730.876C645.308 726.408 653.171 721.83 661.002 717.184C664.352 715.199 667.707 713.224 671.063 711.25C671.753 710.843 672.444 710.436 673.156 710.017C680.23 705.857 687.326 701.732 694.419 697.604C699.928 694.392 705.426 691.161 710.906 687.898C711.482 687.556 712.058 687.213 712.652 686.86C713.814 686.168 714.976 685.476 716.138 684.784C725.002 679.508 733.9 674.322 742.944 669.359C747.888 666.639 752.744 663.798 757.57 660.872C764.281 656.81 771.045 652.841 777.813 648.875C778.741 648.33 778.741 648.33 779.689 647.775C786.593 643.727 793.508 639.698 800.445 635.707C801.039 635.365 801.633 635.024 802.245 634.671C805.062 633.051 807.88 631.435 810.701 629.822C815.581 627.022 820.359 624.181 825 621C829.91 618.346 835.921 617.539 841.066 619.98Z" fill="#19191A"/>
<path d="M841.75 712.75C844.715 714.803 846.181 715.985 848 719C848.846 724.047 848.6 728.616 846.562 733.312C840.311 739.869 831.979 743.739 824.118 748.059C819.07 750.835 814.077 753.682 809.125 756.625C801.427 761.196 793.655 765.633 785.875 770.062C777.514 774.824 769.196 779.638 760.969 784.629C755.65 787.831 750.257 790.905 744.875 794C735.35 799.479 725.851 804.999 716.375 810.562C715.766 810.92 715.158 811.277 714.531 811.645C712.1 813.072 709.669 814.499 707.239 815.926C698.485 821.066 689.712 826.174 680.941 831.285C677.908 833.054 674.876 834.823 671.844 836.594C661.665 842.536 651.481 848.467 641.272 854.358C636.412 857.167 631.588 860.026 626.812 862.977C621.883 865.76 616.496 865.58 611 865C607.083 862.796 604.781 860.124 603 856C602.47 850.436 602.632 846.656 606 842C613.435 835.374 623.024 830.899 631.641 826.035C636.227 823.446 640.78 820.806 645.312 818.125C652.05 814.145 658.802 810.191 665.562 806.25C666.579 805.657 667.596 805.064 668.644 804.454C670.725 803.24 672.806 802.027 674.887 800.814C678.93 798.458 682.973 796.1 687.015 793.741C689.011 792.577 691.007 791.413 693.003 790.249C697.979 787.346 702.955 784.442 707.93 781.535C718.31 775.471 728.706 769.435 739.125 763.437C748.007 758.325 756.849 753.151 765.661 747.92C773.95 743.01 782.295 738.2 790.645 733.395C796.944 729.767 803.235 726.125 809.5 722.437C810.175 722.04 810.851 721.643 811.547 721.234C816.073 718.565 820.563 715.843 825.02 713.059C830.35 710.21 836.38 709.855 841.75 712.75Z" fill="#19191A"/>
<path d="M251.248 901.787C257.116 904.345 262.532 907.693 268 911C269.884 912.1 271.771 913.197 273.66 914.289C277.707 916.633 281.743 918.995 285.773 921.367C291.887 924.952 298.058 928.427 304.25 931.875C313.133 936.825 321.987 941.823 330.812 946.875C331.395 947.208 331.977 947.542 332.578 947.885C335.536 949.579 338.494 951.273 341.452 952.968C345.554 955.318 349.658 957.663 353.763 960.008C356.659 961.662 359.554 963.318 362.449 964.975C367.902 968.097 373.36 971.208 378.84 974.282C381.42 975.73 383.998 977.185 386.575 978.639C387.801 979.33 389.03 980.017 390.26 980.701C391.968 981.651 393.669 982.612 395.371 983.574C396.824 984.388 396.824 984.388 398.306 985.218C402.249 987.827 405.615 990.189 406.625 994.937C405.78 999.077 403.961 1001.04 401 1004C395.548 1007.53 388.204 1007.09 382 1006C376.281 1004.18 371.139 1001.04 366 998C364.697 997.245 363.393 996.489 362.09 995.734C359.312 994.114 356.549 992.471 353.789 990.82C348.233 987.52 342.585 984.39 336.937 981.25C328.57 976.591 320.259 971.85 312 967C302.946 961.686 293.824 956.508 284.652 951.399C275.394 946.238 266.192 940.983 257.001 935.704C251.827 932.737 246.648 929.788 241.406 926.941C240.577 926.49 239.747 926.038 238.892 925.573C237.404 924.768 235.912 923.97 234.414 923.181C230.293 920.951 227.082 918.62 224 915C223.108 911.294 223.226 909.288 225.203 905.996C231.763 898.683 242.486 898.721 251.248 901.787Z" fill="#06993F"/>
<path d="M768.312 912.688C770.256 912.631 770.256 912.631 772.238 912.574C776.558 913.063 778.612 914.35 782 917C782.928 917.65 782.928 917.65 783.875 918.312C785.83 921.246 785.476 923.605 785 927C781.823 929.938 778.376 932.044 774.59 934.109C773.003 934.982 773.003 934.982 771.384 935.871C770.247 936.491 769.109 937.111 767.937 937.75C765.489 939.095 763.043 940.443 760.598 941.793C759.656 942.312 759.656 942.312 758.695 942.842C752.048 946.512 745.459 950.282 738.875 954.062C730.03 959.138 721.159 964.163 712.25 969.125C704.153 973.638 696.117 978.241 688.125 982.938C679.192 988.186 670.186 993.29 661.125 998.312C660.528 998.643 659.931 998.974 659.316 999.315C649.624 1004.68 643.229 1007.2 632 1006C628.641 1004.65 626.763 1003.17 625 1000C623.956 996.672 623.99 994.329 625 991C630.193 985.495 637.941 982.078 644.5 978.5C653.09 973.757 661.611 968.923 670.062 963.938C679.139 958.595 688.337 953.523 697.62 948.549C703.727 945.266 709.719 941.857 715.632 938.237C721 934.96 726.486 931.92 731.996 928.89C738.693 925.198 745.305 921.37 751.895 917.491C753.028 916.828 753.028 916.828 754.184 916.152C754.849 915.76 755.515 915.368 756.201 914.965C760.223 912.808 763.817 912.772 768.312 912.688Z" fill="#1A1A1B"/>
<path d="M281 686C281.99 686.33 282.98 686.66 284 687C283.34 687.66 282.68 688.32 282 689C281.67 691.141 281.67 691.141 281.681 693.633C281.661 694.594 281.641 695.555 281.621 696.545C281.609 697.585 281.598 698.624 281.586 699.695C281.567 700.758 281.547 701.82 281.527 702.915C281.467 706.318 281.421 709.722 281.375 713.125C281.337 715.428 281.298 717.732 281.258 720.035C281.162 725.69 281.077 731.345 281 737C280.67 737 280.34 737 280 737C279.975 729.898 279.957 722.795 279.945 715.693C279.94 713.274 279.933 710.856 279.925 708.438C279.913 704.97 279.907 701.503 279.902 698.035C279.897 696.947 279.892 695.858 279.887 694.737C279.887 693.736 279.887 692.735 279.886 691.703C279.884 690.817 279.882 689.931 279.88 689.018C280 687 280 687 281 686Z" fill="#DDF0E5"/>
</svg>
