<svg width="753" height="577" viewBox="0 0 753 577" fill="none" xmlns="http://www.w3.org/2000/svg">
<path d="M439.311 33.8578C446.082 33.2778 449.895 36.0075 454.941 39.9145C463.267 36.3635 470.16 34.1742 479.356 34.0121C491.819 33.8761 503.82 38.7241 512.692 47.478C520.971 55.602 525.659 66.6983 525.712 78.2973C525.749 90.3791 521.163 101.387 512.537 109.768C501.866 120.133 491.187 122.993 476.737 122.932C529.407 150.039 554.143 232.247 569.257 285.168C576.65 310.339 583.31 335.719 589.229 361.277C574.748 364.792 555.97 367.708 541.182 370.37C523.246 373.722 505.327 377.171 487.428 380.717C486.275 362.927 482.479 208.985 481.131 206.392C481.014 206.166 480.765 206.041 480.581 205.865L479.413 206.021C478.625 207.204 479.655 223.553 479.751 226.224L481.534 281.328L363.077 254.483C359.589 253.739 356.112 252.94 352.649 252.087C355.675 246.423 358.795 240.693 361.701 234.981C372.787 213.186 385.971 192.586 398.495 171.614C398.953 170.846 398.898 170.035 398.869 169.191L398.288 168.755C394.054 171.602 372.639 211.753 367.591 217.71C359.256 227.262 348.623 235.581 339.026 243.638C321.056 258.725 303.043 254.024 287.606 238.355C278.199 228.806 268.439 219.09 259.569 208.953C248.893 196.752 235.875 184.403 226.283 171.431C247.67 157.321 268.033 141.201 289.197 126.691C295.835 122.14 302.537 117.755 308.933 112.861C319.645 129.846 329.773 147.943 340.17 165.244C338.448 167.418 330.692 175.798 331.808 177.824C335.67 176.347 350.934 155.556 355.366 151.482C383.122 125.959 417.25 111.935 455.447 115.609C454.808 115.233 454.176 114.846 453.549 114.449C443.413 108.013 436.244 97.1251 433.775 85.4301C431.275 74.0883 433.451 62.2174 439.812 52.4995C443.016 56.5308 455.485 72.3845 458.584 74.1225L459.067 73.8178C458.25 65.6856 426.827 44.1418 439.311 33.8578ZM490.568 81.3647C489.287 78.494 485.912 77.2161 483.05 78.518C480.217 79.807 478.955 83.1399 480.223 85.9819C481.492 88.8249 484.816 90.1107 487.667 88.8627C490.547 87.6016 491.85 84.2366 490.568 81.3647ZM486.913 44.1098C486.039 41.1249 482.931 39.396 479.934 40.226C477.956 40.774 476.426 42.3454 475.931 44.3373C475.436 46.3292 476.052 48.4343 477.544 49.8442C479.036 51.254 481.171 51.7509 483.133 51.145C486.104 50.2269 487.787 47.0938 486.913 44.1098Z" fill="white"/>
<path d="M369.232 258.253C382.786 260.932 398.876 265.29 412.689 268.447L481.745 283.567L484.929 383.505L506.046 379.45C505.391 388.879 497.625 430.032 500.161 435.353C501.016 437.145 502.246 438.408 504.178 438.977C506.474 439.652 509.608 439.286 511.642 438.006C515.294 435.709 516.029 430.62 517.014 426.765C517.526 429.954 518.664 436.069 518.011 439.028C516.201 447.236 507.909 454.98 520.754 458.936C520.953 461.844 521.295 464.891 521.64 467.796C523.674 484.968 524.689 502.368 527.072 519.484C493.265 520.533 456.95 520.354 422.99 520.594C422.83 507.614 421.574 492.239 420.821 479.128L417.182 412.253L413.754 341.451C413.312 330.758 412.791 320.069 412.192 309.385C412 305.224 412.163 292.959 410.336 290.019L409.648 290.21C407.67 295.79 410.81 331.29 411.066 340.28C406.715 344.37 386.343 364.004 385.699 368.62C387.827 368.068 407.905 346.879 411.389 343.576C412.121 352.362 412.324 363.097 412.748 372.035L415.276 424.873C390.581 424.97 361.552 424.775 340.21 411.053C320.143 398.15 314.697 380.197 316.485 357.289C318.509 331.361 331.246 314.838 345.192 294.184C353.301 282.271 361.315 270.294 369.232 258.253Z" fill="white"/>
<path d="M170.51 394.665C172.132 395.299 186.52 407.361 188.764 409.155L224.947 437.634C209.43 456.395 190.473 476.613 174.124 495.05C173.563 495.718 173.948 495.409 172.826 495.765L141.112 471.905C134.808 467.215 125.958 461.106 120.179 456.102C127.105 446.858 135.823 437.003 143.192 428.012C152.264 416.944 161.284 405.552 170.51 394.665Z" fill="white"/>
<path d="M276.036 384.687C277.838 385.418 291.673 395.909 294.282 397.843L333.034 426.402C319.982 442.407 301.014 463.993 286.822 479C277.172 472.779 266.119 464.21 256.578 457.466C248.092 451.468 237.195 443.933 229.366 437.415C234.328 432.226 239.154 426.905 243.812 421.442C254.386 409.041 265.569 397.178 276.036 384.687Z" fill="white"/>
<path d="M218.445 340.873C224.157 346.084 234.037 352.91 240.541 357.701L274.523 382.989C272.339 385.768 269.631 388.639 267.231 391.254C253.869 405.812 241.167 420.986 227.794 435.522L226.745 435.642C208.467 421.532 190.316 407.256 172.295 392.818C186.276 375.62 203.392 357.384 218.445 340.873Z" fill="white"/>
<path d="M118.175 458.256C135.505 470.009 154.131 485.529 171.695 498.013C155.925 516.984 139.461 535.311 123.495 554.082C105.831 540.967 87.437 528.553 70.195 515.605C81.407 501.142 94.823 487.446 106.255 473.046C110.178 468.103 114.173 463.134 118.175 458.256Z" fill="white"/>
<path d="M472.107 522.617L505.598 522.448C507.775 536.71 512.857 552.848 515.344 567.585C512.654 570.853 510.006 573.741 507.15 576.848C498.502 576.832 489.346 576.967 480.751 576.513L476.969 560.373C473.383 565.854 469.829 571.356 466.308 576.878L454.763 576.851L396.837 576.863C395.545 572.999 395.065 569.618 396.03 565.518C399.255 551.824 410.867 544.369 424.179 542.718C430.614 541.921 437.724 543.606 443.192 539.737C449.141 535.529 450.487 529.447 451.553 522.865L472.107 522.617Z" fill="white"/>
<path d="M632.712 170.2L686.566 214.596C672.352 231.055 655.529 249.425 640.716 265.289C639.722 266.297 640.298 266.101 639.082 266.205C623.21 252.736 603.118 236.871 588.377 222.733C590.432 220.097 592.877 217.287 595.11 214.797C607.924 200.507 619.557 184.104 632.712 170.2Z" fill="white"/>
<path d="M335.253 428.209C338.797 430.305 350.573 439.895 354.18 442.708L389.606 470.238C379.701 482.593 358.001 507.902 346.805 521.242C346.489 521.62 345.794 521.079 345.147 520.763C326.308 507.181 307.622 494.14 288.836 480.337C298.816 469.398 308.693 458.366 318.464 447.24C324.02 440.892 329.42 434.272 335.253 428.209Z" fill="white"/>
<path d="M568.232 367.437L569.14 367.388L569.839 368.089C573.771 385.002 582.808 405.105 580.246 423.326C579.622 427.767 576.886 429.887 573.394 432.133C575.203 424.22 575.557 412.109 571.705 404.865L571.054 404.882L571.239 404.54L571.63 404.897C571.417 405.122 571.204 405.347 570.991 405.573C571.878 416.358 574.434 428.645 568.137 438.429C565.294 442.845 562.231 443.374 557.211 444.162C560.881 434.918 560.98 426.531 559.438 416.763C559.016 414.091 558.609 410.721 557.208 408.407L556.411 408.396C554.972 410.419 556.496 414.728 556.974 417.096C557.82 421.19 558.207 425.366 558.126 429.546C557.949 438.372 555.824 444.015 549.42 450.187C547.426 450.503 545.667 450.943 543.692 450.636C543.583 449.681 543.476 449.8 543.79 448.964C547.708 438.533 546.168 423.476 542.482 413.134C542.223 412.408 542.362 412.712 541.384 412.282L540.492 413.017C541.024 415.215 541.523 417.42 541.988 419.632C544.433 431.625 545.376 442.511 538.399 453.182C534.964 455.27 532.844 455.736 529.022 456.466C510.845 459.936 514.105 443.09 525.314 436.285C524.782 430.473 523.009 413.199 520.816 408.705L520.029 408.489C516.535 412.438 515.211 430.419 511.895 435.642C510.366 438.051 504.956 437.196 502.913 435.773C500.452 432.366 503.143 419.779 503.803 415.029C505.546 403.001 507.182 390.957 508.713 378.899C520.273 376.463 531.879 374.245 543.523 372.248C551.686 370.813 560.249 369.543 568.232 367.437Z" fill="white"/>
<path d="M688.28 216.136C690.988 217.219 735.2 253.688 740.776 258.416C738.577 261.234 736.008 264.098 733.61 266.765C720.604 281.232 708.174 296.305 695.103 310.699C678.411 295.86 659.02 282.955 642.235 268C657.691 250.808 673.04 233.52 688.28 216.136Z" fill="white"/>
<path d="M41.012 439.907C59.147 453.859 77.188 467.933 95.134 482.128C90.962 487.526 85.266 493.849 80.773 499.114C71.764 509.842 62.588 520.427 53.246 530.865L52.612 531.282C49.878 530.195 4.606 489.741 0 485.261C4 479.896 10.972 472.819 15.641 467.736L41.012 439.907Z" fill="white"/>
<path d="M586.453 225.188C587.519 225.706 597.161 234.182 598.979 235.719L637.965 268.756C627.786 281.545 611.709 298.587 600.488 311.221C596.052 316.16 591.501 321.093 587.343 326.261L582.234 323.197C580.475 315.598 577.594 306.222 575.46 298.62C571.245 283.326 566.828 268.088 562.21 252.911C569.774 245.416 579.373 233.49 586.453 225.188Z" fill="white"/>
<path d="M216.491 0.255028C225.688 -1.04597 234.874 2.69303 240.548 10.046C246.223 17.398 247.51 27.232 243.921 35.798C240.332 44.365 232.418 50.343 223.197 51.454C209.143 53.147 196.346 43.209 194.507 29.173C192.669 15.137 202.475 2.23803 216.491 0.255028Z" fill="white"/>
<path d="M345.384 417.196C370.218 427.263 389.465 426.912 415.557 426.919C415.92 431.041 416.124 435.451 416.391 439.603C411.892 443.504 402.99 454.398 398.733 459.377L391.241 468.489L336.751 426.097C339.648 423.252 342.557 420.133 345.384 417.196Z" fill="white"/>
<path d="M130.762 273.277C144.933 274.339 160.265 276.85 174.541 278.031C172.34 292.021 170.907 307.218 169.653 321.346C160.401 320.985 149.249 318.993 139.886 317.938C135.407 317.439 130.939 316.853 126.483 316.181C127.665 306.436 128.621 296.665 129.349 286.876C129.667 282.831 130.187 277.202 130.762 273.277Z" fill="white"/>
<path d="M618.22 41.581L618.525 41.78C619.6 44.309 622.079 65.525 622.747 70.07C631.96 69.177 644.045 66.876 653.646 65.627C654.25 72.167 655.425 79.064 656.132 85.737C650.335 86.188 644.241 87.092 638.474 87.913C631.089 88.38 615.192 90.85 607.515 92.047C605.381 75.931 603.091 59.837 600.645 43.765L618.22 41.581Z" fill="white"/>
<path d="M717.347 424.336C728.56 424.738 740.659 426.315 752.039 426.964C751.279 438.297 749.959 449.418 749.312 461.007C738.578 460.686 725.72 459.43 714.782 458.606C715.089 449.797 716.287 433.025 717.347 424.336Z" fill="white"/>
<path d="M256.188 101.03C264.207 100.096 279.513 101.402 286.998 105.205C293.306 108.409 295.529 111.751 297.528 118.256C289.161 123.611 276.468 132.874 268.235 138.939C267.205 139.675 266.17 140.357 265.126 141.071C259.738 135.034 259.966 132.55 261.336 124.428C262.603 122.963 263.405 122.029 264.847 120.725C266.362 120.416 275.328 119.2 275.875 118.561C278.528 115.459 270.423 117.751 269.636 117.831C263.412 118.463 255.705 119.142 249.945 116.247C248.432 115.487 246.837 113.878 246.506 112.118C245.249 103.035 248.868 102.11 256.188 101.03Z" fill="white"/>
<path d="M679.316 346.882L679.528 347.091C679.811 348.445 669.616 395.268 668.522 400.499C662.746 396.048 657.376 391.284 651.876 386.499C646.979 381.896 640.958 376.941 635.8 372.507C647.112 364.499 666.996 353.88 679.316 346.882Z" fill="white"/>
<path d="M718.535 539.225C727.803 545.103 737.167 550.828 746.624 556.397C737.449 561.344 727.534 567.549 718.523 572.954L718.877 558.413C692.684 557.103 666.478 556.071 640.263 555.318C635.686 555.105 602.614 554.165 601.112 553.292C600.721 551.671 600.614 551.729 601.056 550.157C604.827 548.872 707.304 553.811 718.445 554.38C718.395 549.273 718.321 544.336 718.535 539.225Z" fill="white"/>
<path d="M243.793 49.372C247.854 49.995 249.262 50.48 251.726 54.019C262.077 68.901 271.738 84.393 281.043 99.938C281.908 101.384 277.514 100.056 277.232 100.003C271.965 99.166 267.252 98.946 261.941 98.831C257.393 91.627 251.973 84.334 248.279 76.622C245.064 69.91 233.057 54.416 243.793 49.372Z" fill="white"/>
<path d="M223.351 109.853C228.175 110.298 230.78 113.66 232.607 118.04C236.044 126.277 249.185 136.779 237.787 142.921C230.705 142.875 227.301 134.981 223.581 129.706C220.701 125.623 217.798 119.213 219.013 114.189C219.584 111.83 221.307 110.891 223.351 109.853Z" fill="white"/>
<path d="M233.925 99.389C240.226 99.33 240.137 100.218 243.659 105.341C244.061 112.632 243.333 115.831 251.074 119.543C251.212 119.61 252.732 123.21 253.129 123.919C255.842 128.764 253.544 131.789 249.333 134.313C240.62 134.207 235.02 114.483 229.34 108.135C226.713 105.198 230.439 100.999 233.925 99.389Z" fill="white"/>
<path d="M257.36 128.086C258.066 129.849 257.531 130.858 257.972 132.678C258.962 138.136 259.46 138.177 263.432 142.461C259.247 145.451 251.427 150.344 248.028 153.736L247.329 154.413C244.362 152.989 237.179 149.385 236.195 145.887C236.129 145.654 236.135 145.43 236.297 145.24C236.499 145.005 237.081 144.945 237.362 144.918C238.961 144.762 240.312 144.355 241.62 143.362C243.513 141.924 244.761 139.761 244.938 137.378C244.965 137.02 244.925 136.538 245.083 136.182C245.287 135.722 250.35 136.255 251.393 135.857C254.908 134.513 255.864 131.142 257.36 128.086Z" fill="white"/>
<path d="M245.576 87.778C248.496 87.932 248.896 88.338 251.753 89.216C254.309 92.398 256.379 95.498 259.014 98.739C254.846 98.911 254.271 98.994 250.188 99.672C247.32 101.258 247.248 101.326 244.897 103.752C241.007 98.045 238.113 93.725 244.877 88.348L245.576 87.778Z" fill="white"/>
<path d="M184.297 61.269C184.696 61.574 187.288 63.225 186.666 64.055C178.552 74.894 169.557 85.461 161.183 96.085C160.973 95.989 158.322 94.696 158.653 94.225C166.562 82.983 175.817 72.188 184.297 61.269Z" fill="white"/>
<path d="M310.446 543.206C311.186 543.57 312.73 544.515 312.873 545.409C312.568 546.226 303.674 556.829 302.752 557.856C299.535 557.434 300.305 555.431 302.015 553.499C304.76 550.397 307.739 546.404 310.446 543.206Z" fill="white"/>
<path d="M254.477 120.533C256.746 120.74 258.823 120.837 261.094 120.947C257.577 126.593 259.086 126.898 257.972 132.678C257.531 130.858 258.066 129.849 257.36 128.086C256.266 124.633 256.125 123.933 254.477 120.533Z" fill="white"/>
</svg>
